<svg xmlns="http://www.w3.org/2000/svg" id="Layer_1" enable-background="new 0 0 64 64" viewBox="0 0 64 64"><path fill="#eff3f5" d="M54.9,62.09H3c-1.44,0-2.61-1.17-2.61-2.61V7.58c0-1.44,1.17-2.61,2.61-2.61h51.9c1.44,0,2.61,1.17,2.61,2.61
		v51.9C57.51,60.92,56.34,62.09,54.9,62.09z"/><path fill="#c6c1c1" d="M57.51,59.49v1.91c0,1.44-1.16,2.6-2.6,2.6H3c-1.44,0-2.6-1.16-2.6-2.6v-1.91c0,1.44,1.16,2.6,2.6,2.6H54.9
		C56.34,62.09,57.51,60.92,57.51,59.49z"/><polygon fill="#d3d3d3" points="15.88 47.73 35.32 47.73 57.51 40.13 57.51 15.32"/><rect width="40.91" height="2.54" x="8.49" y="17.54" fill="#bdbdbe"/><rect width="40.91" height="2.54" x="8.49" y="27.35" fill="#bdbdbe"/><rect width="40.91" height="2.54" x="8.49" y="37.16" fill="#bdbdbe"/><rect width="40.91" height="2.54" x="8.49" y="46.98" fill="#bdbdbe"/><g><path fill="#fcd66f" d="M32.05,41.75c-0.12,0.08-0.24,0.15-0.37,0.19c-0.09,0.05-0.18,0.08-0.27,0.1l-10.62,3.99l-3.21-3.21
				l3.98-10.62c0.03-0.09,0.06-0.19,0.1-0.28c0.05-0.13,0.12-0.25,0.2-0.37L32.05,41.75z"/><path fill="#fbd984" d="M18.67,43.92l-1.1-1.1l3.98-10.62c0.03-0.09,0.06-0.19,0.1-0.28c0.05-0.13,0.12-0.25,0.2-0.37l3.91,2.86
				L18.67,43.92z"/><path fill="#e6ac43" d="M32.05,41.75c-0.12,0.08-0.24,0.15-0.37,0.19c-0.09,0.05-0.18,0.08-0.27,0.1l-10.62,3.99l-1.1-1.1l9.51-7.1
				L32.05,41.75z"/><polygon fill="#fcd66f" points="29.19 37.84 19.69 44.94 15.88 47.73 18.67 43.92 25.77 34.42"/><polygon fill="#2e435a" points="15.88 47.73 20.78 46.04 17.57 42.83"/><path fill="#324a5e" d="M56.03,17.86L32.46,41.43c-0.13,0.13-0.26,0.24-0.4,0.32c-0.12,0.08-0.24,0.15-0.37,0.19
			c-0.09,0.05-0.18,0.08-0.27,0.1c-0.82,0.23-1.73,0.03-2.38-0.62c-0.7-0.7-0.88-1.71-0.55-2.58c0.05-0.16,0.13-0.31,0.23-0.45
			c0.09-0.14,0.19-0.28,0.32-0.4l23.57-23.57L56.03,17.86z"/><path fill="#445b69" d="M25.6,34.58L49.18,11l3.43,3.43L29.03,38.01c-0.95,0.95-2.48,0.95-3.43,0l0,0
			C24.66,37.06,24.66,35.53,25.6,34.58z"/><path fill="#445b69" d="M49.18,11L25.6,34.58c-0.13,0.13-0.26,0.24-0.4,0.32c-0.94,0.61-2.2,0.5-3.02-0.32
			c-0.64-0.64-0.85-1.55-0.62-2.37c0.03-0.09,0.06-0.19,0.1-0.28c0.05-0.13,0.12-0.25,0.2-0.37c0.08-0.15,0.19-0.28,0.32-0.4
			L45.75,7.58L49.18,11z"/><path fill="#687d87" d="M49.33,11.16L25.05,35.44c0.12-0.31,0.3-0.61,0.55-0.86L49.18,11L49.33,11.16z"/><polygon fill="#687d87" points="28.49 38.85 52.76 14.58 52.61 14.43 29.03 38.01 29.03 38.01"/><rect width="4.2" height="4.63" x="53.78" y="12.42" fill="#dededf" transform="rotate(-45.001 55.878 14.738)"/><rect width="4.2" height="4.63" x="50.35" y="9" fill="#e5e5e5" transform="rotate(-45.001 52.453 11.312)"/><rect width="4.2" height="4.85" x="46.85" y="5.38" fill="#eff3f5" transform="rotate(-45.001 48.947 7.806)"/><rect width="4.2" height=".22" x="48.64" y="9.49" fill="#dededf" transform="rotate(-45.001 50.738 9.599)"/><rect width="4.2" height=".21" x="52.07" y="12.92" fill="#dededf" transform="rotate(-45.001 54.164 13.024)"/><path fill="#a72a45" d="M63.17,10.72L59,14.89l-3.28-3.28l5.22-5.22l2.23,2.23C63.75,9.2,63.75,10.14,63.17,10.72z"/><rect width="7.38" height="4.63" x="52.85" y="4.91" fill="#d1395d" transform="rotate(-45.001 56.546 7.22)"/><path fill="#df4666" d="M57.52,2.97L52.3,8.19l-3.58-3.58l4.17-4.17c0.58-0.58,1.51-0.58,2.1,0L57.52,2.97z"/><rect width="7.38" height=".21" x="54.57" y="8.82" fill="#df4666" transform="rotate(-45.001 58.257 8.93)"/><rect width="7.38" height=".22" x="51.14" y="5.39" fill="#a72a45" transform="rotate(-45.001 54.832 5.505)"/><rect width="7.38" height=".21" x="54.57" y="8.82" fill="#621a21" transform="rotate(-45.001 58.257 8.93)"/><rect width="1.29" height="4.63" x="55.23" y="12.42" fill="#c6c1c1" transform="rotate(-45.001 55.878 14.738)"/><rect width="1.29" height="4.63" x="51.81" y="9" fill="#d3d3d3" transform="rotate(-45.001 52.456 11.312)"/><rect width="1.29" height="4.85" x="48.3" y="5.38" fill="#dededf" transform="rotate(-45.001 48.943 7.807)"/><rect width="1.29" height=".22" x="50.09" y="9.49" fill="#bdbdbe" transform="rotate(-45.001 50.739 9.599)"/><rect width="1.29" height=".21" x="53.52" y="12.92" fill="#bdbdbe" transform="rotate(-45.001 54.164 13.024)"/><rect width="4.2" height=".22" x="48.64" y="9.49" fill="#c6c1c1" transform="rotate(-45.001 50.738 9.599)"/><rect width="4.2" height=".21" x="52.07" y="12.92" fill="#bdbdbe" transform="rotate(-45.001 54.164 13.024)"/></g></svg>