<svg xmlns="http://www.w3.org/2000/svg" viewBox="0 0 16 16"><path d="M12.171 0a3.804 3.804 0 0 0-2.707 1.122L6.483 4.103c.228-.032.455-.066.688-.066a4.99 4.99 0 0 1 1.85.356l1.857-1.857a1.83 1.83 0 0 1 2.586 2.586l-3.342 3.342c-.692.69-1.895.691-2.586 0L6.123 9.88A3.804 3.804 0 0 0 8.829 11a3.804 3.804 0 0 0 2.707-1.122l3.342-3.342A3.804 3.804 0 0 0 16 3.829 3.833 3.833 0 0 0 12.171 0z"/><path d="M6.961 11.625l-1.84 1.84a1.83 1.83 0 0 1-2.586-2.586l3.343-3.343c.692-.69 1.895-.691 2.586 0L9.877 6.12c-1.445-1.444-3.966-1.445-5.413.002L1.122 9.464A3.804 3.804 0 0 0 0 12.171 3.833 3.833 0 0 0 3.829 16a3.804 3.804 0 0 0 2.707-1.122l2.941-2.941c-.214.028-.428.063-.648.063-.652 0-1.284-.13-1.868-.375z"/></svg>