<svg xmlns="http://www.w3.org/2000/svg" width="48" height="48" viewBox="0 0 48 48"><path fill-rule="evenodd" d="M 24 0 A 24 24 0 0 0 0 24 A 24 24 0 0 0 24 48 A 24 24 0 0 0 48 24 A 24 24 0 0 0 24 0 z M 21.75 13 L 26.25 13 C 27.768167 13 29 14.252297 29 15.779297 L 29 16 L 30 16 L 34 16 L 36 16 C 37.653359 16 39 17.3467 39 19 L 39 22 L 39 25 L 39 32 L 39 33.5 C 39 33.9167 38.807083 34.275016 38.541016 34.541016 C 38.274948 34.807116 37.916667 35 37.5 35 L 10.5 35 C 10.083333 35 9.7250518 34.807116 9.4589844 34.541016 C 9.192917 34.275016 9 33.9167 9 33.5 L 9 32 L 9 25 L 9 22 L 9 19 C 9 17.3467 10.346641 16 12 16 L 14 16 L 18 16 L 19 16 L 19 15.779297 C 19 14.252297 20.231833 13 21.75 13 z M 21.75 14 C 20.775167 14 20 14.782497 20 15.779297 L 20 16 L 28 16 L 28 15.779297 C 28 14.782497 27.224833 14 26.25 14 L 21.75 14 z M 12 17 C 10.883339 17 10 17.8834 10 19 L 10 22 C 10 23.1167 10.883339 24 12 24 L 13.5 24 L 13.5 23.5 A 0.50005 0.50005 0 0 1 14 23 L 14 17 L 12 17 z M 15 17 L 15 23 L 17 23 L 17 17 L 15 17 z M 18 17 L 18 23 A 0.50005 0.50005 0 0 1 18.5 23.5 L 18.5 24 L 24 24 L 29.5 24 L 29.5 23.5 A 0.50005 0.50005 0 0 1 30 23 L 30 17 L 18 17 z M 31 17 L 31 23 L 33 23 L 33 17 L 31 17 z M 34 17 L 34 23 A 0.50005 0.50005 0 0 1 34.5 23.5 L 34.5 24 L 36 24 C 37.116661 24 38 23.1167 38 22 L 38 19 C 38 17.8834 37.116661 17 36 17 L 34 17 z M 14.5 24 L 14.5 26 L 15.5 26 L 15.5 25 L 16.5 25 L 16.5 26 L 17.5 26 L 17.5 24 L 14.5 24 z M 30.5 24 L 30.5 26 L 31.5 26 L 31.5 25 L 32.5 25 L 32.5 26 L 33.5 26 L 33.5 24 L 30.5 24 z M 10 24.21875 L 10 25 L 10 32 L 10 33.5 C 10 33.5834 10.057083 33.725084 10.166016 33.833984 C 10.274948 33.942984 10.41667 34 10.5 34 L 14 34 L 14 30 L 14 27 A 0.50005 0.50005 0 0 1 13.5 26.5 L 13.5 25 L 12 25 C 11.229072 25 10.532132 24.69885 10 24.21875 z M 38 24.21875 C 37.467868 24.69885 36.770928 25 36 25 L 34.5 25 L 34.5 26.5 A 0.50005 0.50005 0 0 1 34 27 L 34 30 L 34 34 L 37.5 34 C 37.583333 34 37.725052 33.942884 37.833984 33.833984 C 37.94292 33.725084 38 33.583 38 33.5 L 38 32 L 38 25 L 38 24.21875 z M 18.5 25 L 18.5 26.5 A 0.50005 0.50005 0 0 1 18 27 L 18 30 L 18 34 L 30 34 L 30 30 L 30 27 A 0.50005 0.50005 0 0 1 29.5 26.5 L 29.5 25 L 24 25 L 18.5 25 z M 15 27 L 15 30 L 15 34 L 17 34 L 17 30 L 17 27 L 15 27 z M 31 27 L 31 30 L 31 34 L 33 34 L 33 30 L 33 27 L 31 27 z "/></svg>